<svg width="928" height="544" viewBox="0 0 928 544" fill="none" xmlns="http://www.w3.org/2000/svg">
<path d="M225.123 167.725C229.275 120.9 209.009 96.2704 198.357 89.8094C232.815 109.229 266.772 96.6074 279.444 87.8694L283.327 108.676C306.935 111.058 312.559 79.0554 312.42 62.7564C312.205 37.6092 284.386 6.55845 229.046 19.0099C173.706 31.4614 143.335 77.2388 135.066 98.5714C95.4443 87.6774 52.8811 117.323 36.5523 133.508C19.6679 150.308 -15.8794 201.097 9.08184 257.805C42.7585 334.314 132.339 315.315 146.96 307.789C197.482 281.787 219.934 226.256 225.123 167.725Z" fill="black"/>
<path d="M300.84 159.097C299.662 167.045 296.721 173.839 293.046 178.408C289.329 183.03 285.215 185.005 281.582 184.467C277.95 183.929 274.585 180.846 272.368 175.344C270.176 169.906 269.33 162.551 270.508 154.603C271.685 146.655 274.627 139.861 278.302 135.292C282.019 130.669 286.133 128.694 289.766 129.232C293.398 129.771 296.763 132.853 298.98 138.355C301.172 143.793 302.018 151.149 300.84 159.097Z" stroke="black" stroke-width="5"/>
<path d="M285.918 165.934C288.475 166.312 291.101 162.888 291.783 158.285C292.465 153.682 290.945 149.643 288.388 149.264C285.831 148.885 283.205 152.31 282.523 156.913C281.841 161.516 283.361 165.555 285.918 165.934Z" fill="black"/>
<path d="M225.262 163.804L268.541 159.879" stroke="black" stroke-width="5" stroke-linecap="round"/>
<path d="M288.09 109.495C291.828 117.02 302.857 133.466 314.373 142.67C326.151 152.084 327.146 164.084 319.626 172.73L307.904 186.332C314.373 235.797 304.842 272.426 244.216 289.477" stroke="black" stroke-width="5" stroke-linecap="round"/>
<path d="M243.497 208.922C244.929 209.134 246.263 208.145 246.475 206.712C246.687 205.28 245.698 203.946 244.265 203.734C242.833 203.522 241.499 204.511 241.287 205.944C241.075 207.376 242.064 208.71 243.497 208.922Z" fill="black"/>
<path d="M234.101 232.976C235.82 233.231 237.386 232.276 237.598 230.843C237.81 229.41 236.588 228.043 234.869 227.788C233.15 227.533 231.584 228.488 231.372 229.921C231.16 231.353 232.382 232.721 234.101 232.976Z" fill="black"/>
<path d="M256.966 228.944C258.685 229.199 260.25 228.244 260.463 226.811C260.675 225.379 259.453 224.011 257.734 223.756C256.015 223.501 254.449 224.456 254.237 225.889C254.025 227.321 255.246 228.689 256.966 228.944Z" fill="black"/>
<path d="M423.828 358.939C426.13 355.726 427.286 352.801 426.237 350.781C423.186 344.909 415.683 350.936 412.313 354.684C403.926 363.701 387.784 379.374 392.135 361.136C396.485 342.897 387.232 344.02 365.565 366.283L344.027 379.38" stroke="black" stroke-width="5" stroke-linecap="round"/>
<path d="M422.067 387.535C423.922 393.239 420.946 406.441 393.672 409.64C383.353 410.85 381.802 410.68 372.117 409.863H355.527" stroke="black" stroke-width="5" stroke-linecap="round"/>
<path d="M405.527 376.123C410.886 372.174 419.433 365.005 423.82 358.881C428.584 358.826 433.197 361.511 425.845 370.895C422.662 374.958 417.236 380.276 408.608 387.172" stroke="black" stroke-width="5" stroke-linecap="round"/>
<path d="M408.616 387.23C417.244 380.334 422.67 375.016 425.853 370.953C430.398 372.234 434.487 377.189 422.067 387.535C419.351 389.797 415.845 392.318 411.382 395.114" stroke="black" stroke-width="5" stroke-linecap="round"/>
<path d="M147.169 317.794C73.7061 371.381 82.4965 438.207 82.4965 520.794" stroke="black" stroke-width="5" stroke-linecap="round"/>
<path d="M149.169 318.704L184.436 349.565C185.581 350.568 187.382 349.974 187.707 348.487L196.901 306.44C197.242 304.881 199.182 304.329 200.292 305.477L224.169 330.158" stroke="black" stroke-width="5" stroke-linecap="round"/>
<path d="M224.169 293.794C226.125 297.459 228.929 303.416 231.557 310.339C235.163 319.842 238.437 331.166 238.73 340.885" stroke="black" stroke-width="5" stroke-linecap="round"/>
<path d="M231.557 310.339L297.967 349.171" stroke="black" stroke-width="5" stroke-linecap="round"/>
<path d="M180.169 379.303C192.213 395.619 260.044 440.8 308.856 391.227L322.169 376.794" stroke="black" stroke-width="5" stroke-linecap="round"/>
<path d="M213.169 538.794C228.84 534.742 303.169 494.039 324.817 456.218" stroke="black" stroke-width="5" stroke-linecap="round"/>
<path d="M319.014 407.051C324.382 426.324 325.893 442.593 324.817 456.218C336.76 448.023 348.169 441.72 348.169 415.876C348.169 397.595 334.859 381.837 322.816 376.794" stroke="black" stroke-width="5" stroke-linecap="round"/>
<path d="M219.169 363.794C221.93 363.794 224.169 361.108 224.169 357.794C224.169 354.48 221.93 351.794 219.169 351.794C216.408 351.794 214.169 354.48 214.169 357.794C214.169 361.108 216.408 363.794 219.169 363.794Z" fill="black"/>
<path d="M226.169 392.794C228.93 392.794 231.169 390.108 231.169 386.794C231.169 383.48 228.93 380.794 226.169 380.794C223.408 380.794 221.169 383.48 221.169 386.794C221.169 390.108 223.408 392.794 226.169 392.794Z" fill="black"/>
<path d="M279.287 226.794C278.643 230.694 280.317 238.754 292.169 239.794" stroke="black" stroke-width="5" stroke-linecap="round"/>
<path d="M755.34 371.949C755.34 331.949 765.84 312.449 780.34 292.949" stroke="black" stroke-width="5" stroke-linecap="round"/>
<path d="M922.84 510.949C927.84 446.949 922.84 420.449 918.34 386.449C911.38 333.865 889.415 292.955 880.608 279.308C871.801 265.66 854.353 266.506 837.84 272.449" stroke="black" stroke-width="5" stroke-linecap="round"/>
<path d="M782.407 273.109C773.682 267.738 708.045 272.915 695.283 190.35C673.435 190.605 661.556 172.709 678.226 165.051C695.997 155.887 694.663 139.062 691.443 129.149C686.325 116.149 686.016 102.5 687.119 99.645" stroke="black" stroke-width="5" stroke-linecap="round"/>
<path d="M723.683 166.711C720.493 166.748 717.861 162.899 717.805 158.113C717.749 153.327 720.29 149.417 723.48 149.379C726.671 149.342 729.303 153.191 729.359 157.977C729.415 162.763 726.874 166.673 723.683 166.711Z" fill="black"/>
<path d="M737.001 139.132C733.356 135.236 723.93 129.536 715.389 137.908" stroke="black" stroke-width="5" stroke-linecap="round"/>
<path d="M755.754 210.449C749.055 220.758 741.7 223.686 727.413 217.033" stroke="black" stroke-width="5" stroke-linecap="round"/>
<path d="M806.334 136.895C807.886 140.304 809.186 148.041 801.971 151.724" stroke="black" stroke-width="5" stroke-linecap="round"/>
<path d="M883.23 101.894C891.73 148.4 865.134 183.409 845.852 210.321C825.259 199.195 791.509 172.739 804.453 169.884C818.059 166.883 832.409 129.771 819.196 118.418C803.694 105.099 789.721 125.252 787.058 140.533L774.573 118.941C778.103 103.839 779.488 77.3481 756.782 92.199C734.075 107.05 700.769 103.16 686.954 99.358C659.714 79.861 617.393 34.3823 666.028 8.44722C706.478 -13.1236 759.115 14.1477 791.246 38.6526C813.001 32.9092 871.641 38.4847 883.23 101.894Z" fill="black"/>
<path d="M844.34 207.205C834.507 219.043 829.622 228.873 830.23 249.237" stroke="black" stroke-width="5" stroke-linecap="round"/>
<path d="M352.34 440.449V469.949C352.34 471.054 353.235 471.949 354.34 471.949H414.34C426.34 471.949 426.666 456.884 419.34 436.449C409.84 409.949 432.84 403.125 445.84 406.949C455.782 409.874 462.34 421.949 456.34 436.449C451.314 448.596 442.696 455.661 451.758 470.992C452.109 471.586 452.759 471.949 453.448 471.949H527.34C528.444 471.949 529.34 471.054 529.34 469.949V406.949C529.34 401.449 532.14 395.249 549.34 400.449C570.84 406.949 590.34 395.449 588.34 377.449C585.303 350.113 549.34 359.949 549.34 359.449C549.34 358.949 525.34 367.449 525.34 341.449C525.34 322.124 524.926 302.496 525.228 294.098C525.27 292.935 524.348 291.949 523.184 291.949H456.84C450.84 291.949 447.534 301.409 459.84 316.449C468.84 327.449 462.34 355.449 435.34 348.949C427.673 346.116 416.84 335.449 424.84 316.449C428.84 306.949 437.34 291.449 423.34 290.449H354.34C353.235 290.449 352.34 291.345 352.34 292.449V338.449C352.34 345.116 348.34 355.849 332.34 345.449C312.34 332.449 289.34 347.949 292.34 370.949C294.166 384.949 304.34 388.949 309.84 390.449" stroke="black" stroke-width="5" stroke-linecap="round"/>
<path d="M525.84 292.449H583.34C590.34 292.449 603.108 286.07 598.84 260.463C594.34 233.461 615.811 233.686 624.84 236.96C629.507 238.629 637.44 245.665 631.84 260.463C624.84 278.96 629.34 293.465 643.84 293.465H693.84C694.945 293.465 695.84 294.361 695.84 295.465V375.949" stroke="black" stroke-width="5" stroke-linecap="round"/>
<path d="M527.84 471.949C541.007 471.783 573.134 471.949 586.34 471.949C592.84 471.949 599.84 476.949 593.84 493.449C587.84 509.949 593.84 525.449 608.34 527.949C633.59 532.303 641.34 510.949 633.84 493.449C628.815 481.725 627.34 472.449 635.84 471.949C643.336 471.508 684.277 471.845 693.841 471.931C694.953 471.941 695.84 471.042 695.84 469.93V421.949" stroke="black" stroke-width="5" stroke-linecap="round"/>
<path d="M524.34 505.449C522.673 509.949 521.84 523.349 531.84 540.949" stroke="black" stroke-width="5" stroke-linecap="round"/>
<path d="M505.34 502.449C498.84 508.449 485.54 522.449 484.34 530.449" stroke="black" stroke-width="5" stroke-linecap="round"/>
<path d="M536.84 502.449C540.007 507.949 546.54 519.849 547.34 523.449" stroke="black" stroke-width="5" stroke-linecap="round"/>
<path d="M526.34 268.949C532.84 262.949 546.14 248.949 547.34 240.949" stroke="black" stroke-width="5" stroke-linecap="round"/>
<path d="M507.34 265.949C509.007 261.449 509.84 248.049 499.84 230.449" stroke="black" stroke-width="5" stroke-linecap="round"/>
<path d="M494.84 268.949C491.673 263.449 485.14 251.549 484.34 247.949" stroke="black" stroke-width="5" stroke-linecap="round"/>
<path d="M673.532 369.632C672.198 361.805 669.167 345.791 660.99 338.685C658.876 336.938 654.826 332.55 655.545 328.98C656.443 324.518 646.539 322.72 646.466 332.935C646.393 343.15 653.987 345.418 646.317 348.473" stroke="black" stroke-width="5" stroke-linecap="round"/>
<path d="M646.317 348.473C640.181 350.916 621.967 340.493 613.627 334.976C610.768 332.915 604.473 330.414 602.159 336.896C601.586 338.501 602.048 340.263 603.181 342.064C606.627 347.534 616.28 353.352 621.975 356.148" stroke="black" stroke-width="5" stroke-linecap="round"/>
<path d="M621.975 356.148C616.28 353.352 606.627 347.534 603.181 342.064C599.983 340.237 593.259 338.197 591.947 344.647C591.551 346.593 592.747 348.75 594.836 350.91C599.67 355.911 609.291 360.934 615.05 363.429" stroke="black" stroke-width="5" stroke-linecap="round"/>
<path d="M615.05 363.429C609.291 360.934 599.67 355.911 594.836 350.91C591.356 352.398 587.601 357.431 600.412 365.663L604.272 368.02L610.984 372.119" stroke="black" stroke-width="5" stroke-linecap="round"/>
<path d="M604.272 368.02C604.384 372.439 609.526 383.007 629.194 389.923C648.863 396.839 661.11 393.792 664.775 391.404" stroke="black" stroke-width="5" stroke-linecap="round"/>
<path d="M806.84 322.449C797.64 393.249 774.673 399.616 764.34 393.949C743.673 384.449 698.14 368.849 681.34 382.449C664.54 396.049 684.673 414.449 696.84 421.949C737.173 450.783 824.74 498.049 852.34 456.449C879.94 414.849 881.84 362.449 879.34 341.449" stroke="black" stroke-width="5" stroke-linecap="round"/>
<path d="M765.84 316.449C750.507 322.616 715.04 338.249 695.84 351.449" stroke="black" stroke-width="5" stroke-linecap="round"/>
<path d="M837.215 272.894C839.825 263.79 841.355 246.426 826.594 249.801C808.142 254.019 771.085 281.335 773.84 291.449" stroke="black" stroke-width="5" stroke-linecap="round"/>
</svg>
