<svg width="927" height="543" viewBox="0 0 927 543" fill="none" xmlns="http://www.w3.org/2000/svg">
<path d="M224.656 167.14C228.808 120.315 208.542 95.6854 197.89 89.2244C232.348 108.644 266.305 96.0224 278.977 87.2844L282.86 108.091C306.468 110.473 312.092 78.4704 311.953 62.1714C311.738 37.0242 283.919 5.97349 228.579 18.4249C173.239 30.8764 142.868 76.6538 134.599 97.9864C94.9773 87.0924 52.4141 116.738 36.0853 132.923C19.2009 149.723 -16.3464 200.512 8.6148 257.22C42.2915 333.729 131.872 314.73 146.493 307.204C197.015 281.202 219.467 225.671 224.656 167.14Z" fill="black"/>
<path d="M300.373 158.512C299.195 166.46 296.254 173.254 292.579 177.823C288.862 182.445 284.748 184.42 281.115 183.882C277.483 183.344 274.118 180.261 271.901 174.759C269.709 169.321 268.863 161.966 270.041 154.018C271.218 146.07 274.16 139.276 277.835 134.707C281.552 130.084 285.666 128.109 289.299 128.647C292.931 129.186 296.296 132.268 298.513 137.77C300.705 143.208 301.551 150.564 300.373 158.512Z" stroke="black" stroke-width="5"/>
<path d="M285.451 165.349C288.008 165.727 290.634 162.303 291.316 157.7C291.998 153.097 290.478 149.058 287.921 148.679C285.364 148.3 282.738 151.725 282.056 156.328C281.374 160.931 282.894 164.97 285.451 165.349Z" fill="black"/>
<path d="M224.795 163.219L268.074 159.294" stroke="black" stroke-width="5" stroke-linecap="round"/>
<path d="M287.623 108.91C291.361 116.435 302.39 132.881 313.906 142.085C325.684 151.499 326.679 163.499 319.159 172.145L307.437 185.747C313.906 235.212 304.375 271.841 243.749 288.892" stroke="black" stroke-width="5" stroke-linecap="round"/>
<path d="M243.03 208.337C244.462 208.549 245.796 207.56 246.008 206.127C246.22 204.695 245.231 203.361 243.798 203.149C242.366 202.937 241.032 203.926 240.82 205.359C240.608 206.791 241.597 208.125 243.03 208.337Z" fill="black"/>
<path d="M233.634 232.391C235.353 232.646 236.919 231.691 237.131 230.258C237.343 228.825 236.121 227.458 234.402 227.203C232.683 226.948 231.117 227.903 230.905 229.336C230.693 230.768 231.915 232.136 233.634 232.391Z" fill="black"/>
<path d="M256.499 228.359C258.218 228.614 259.783 227.659 259.996 226.226C260.208 224.794 258.986 223.426 257.267 223.171C255.548 222.916 253.982 223.871 253.77 225.304C253.558 226.736 254.779 228.104 256.499 228.359Z" fill="black"/>
<path d="M423.361 358.354C425.663 355.141 426.819 352.216 425.77 350.196C422.719 344.324 415.216 350.351 411.846 354.099C403.459 363.116 387.317 378.789 391.668 360.551C396.018 342.312 386.765 343.435 365.098 365.698L343.56 378.795" stroke="black" stroke-width="5" stroke-linecap="round"/>
<path d="M421.6 386.95C423.455 392.654 420.479 405.856 393.205 409.055C382.886 410.265 381.335 410.095 371.65 409.278H355.06" stroke="black" stroke-width="5" stroke-linecap="round"/>
<path d="M405.06 375.538C410.419 371.589 418.966 364.42 423.353 358.296C428.117 358.241 432.73 360.926 425.378 370.31C422.195 374.373 416.769 379.691 408.141 386.587" stroke="black" stroke-width="5" stroke-linecap="round"/>
<path d="M408.149 386.645C416.777 379.749 422.203 374.431 425.386 370.368C429.931 371.649 434.02 376.604 421.6 386.95C418.884 389.212 415.378 391.733 410.915 394.529" stroke="black" stroke-width="5" stroke-linecap="round"/>
<path d="M146.702 317.209C73.239 370.796 82.0294 437.622 82.0294 520.209" stroke="black" stroke-width="5" stroke-linecap="round"/>
<path d="M148.702 318.119L183.969 348.98C185.114 349.983 186.915 349.389 187.24 347.902L196.434 305.855C196.775 304.296 198.715 303.744 199.825 304.892L223.702 329.573" stroke="black" stroke-width="5" stroke-linecap="round"/>
<path d="M223.702 293.209C225.658 296.874 228.462 302.831 231.09 309.754C234.696 319.257 237.97 330.581 238.263 340.3" stroke="black" stroke-width="5" stroke-linecap="round"/>
<path d="M231.09 309.754L297.5 348.586" stroke="black" stroke-width="5" stroke-linecap="round"/>
<path d="M179.702 378.718C191.746 395.034 259.577 440.215 308.389 390.642L321.702 376.209" stroke="black" stroke-width="5" stroke-linecap="round"/>
<path d="M212.702 538.209C228.373 534.157 302.702 493.454 324.35 455.633" stroke="black" stroke-width="5" stroke-linecap="round"/>
<path d="M318.547 406.466C323.915 425.739 325.426 442.008 324.35 455.633C336.293 447.438 347.702 441.135 347.702 415.291C347.702 397.01 334.392 381.252 322.349 376.209" stroke="black" stroke-width="5" stroke-linecap="round"/>
<path d="M218.702 363.209C221.463 363.209 223.702 360.523 223.702 357.209C223.702 353.895 221.463 351.209 218.702 351.209C215.941 351.209 213.702 353.895 213.702 357.209C213.702 360.523 215.941 363.209 218.702 363.209Z" fill="black"/>
<path d="M225.702 392.209C228.463 392.209 230.702 389.523 230.702 386.209C230.702 382.895 228.463 380.209 225.702 380.209C222.941 380.209 220.702 382.895 220.702 386.209C220.702 389.523 222.941 392.209 225.702 392.209Z" fill="black"/>
<path d="M278.82 226.209C278.176 230.109 279.85 238.169 291.702 239.209" stroke="black" stroke-width="5" stroke-linecap="round"/>
<path d="M754.873 371.364C754.873 331.364 765.373 311.864 779.873 292.364" stroke="black" stroke-width="5" stroke-linecap="round"/>
<path d="M922.373 510.364C927.373 446.364 922.373 419.864 917.873 385.864C910.913 333.28 888.948 292.37 880.141 278.723C871.334 265.075 853.886 265.921 837.373 271.864" stroke="black" stroke-width="5" stroke-linecap="round"/>
<path d="M781.94 272.524C773.215 267.153 707.578 272.33 694.816 189.765C672.968 190.02 661.089 172.124 677.759 164.466C695.53 155.302 694.196 138.477 690.976 128.564C685.858 115.564 685.549 101.915 686.652 99.0601" stroke="black" stroke-width="5" stroke-linecap="round"/>
<path d="M723.216 166.126C720.026 166.163 717.394 162.314 717.338 157.528C717.282 152.742 719.823 148.832 723.013 148.794C726.204 148.757 728.836 152.606 728.892 157.392C728.948 162.178 726.407 166.088 723.216 166.126Z" fill="black"/>
<path d="M736.534 138.547C732.889 134.651 723.463 128.951 714.922 137.323" stroke="black" stroke-width="5" stroke-linecap="round"/>
<path d="M755.287 209.864C748.588 220.173 741.233 223.101 726.946 216.448" stroke="black" stroke-width="5" stroke-linecap="round"/>
<path d="M805.867 136.31C807.419 139.719 808.719 147.456 801.504 151.139" stroke="black" stroke-width="5" stroke-linecap="round"/>
<path d="M882.763 101.309C891.263 147.815 864.667 182.824 845.385 209.736C824.792 198.61 791.042 172.154 803.986 169.299C817.592 166.298 831.942 129.186 818.729 117.833C803.227 104.514 789.254 124.667 786.591 139.948L774.106 118.356C777.636 103.254 779.021 76.7632 756.315 91.6141C733.608 106.465 700.302 102.575 686.487 98.7731C659.247 79.2761 616.926 33.7974 665.561 7.86226C706.011 -13.7086 758.648 13.5628 790.779 38.0677C812.534 32.3243 871.174 37.8998 882.763 101.309Z" fill="black"/>
<path d="M843.873 206.62C834.04 218.458 829.155 228.288 829.763 248.652" stroke="black" stroke-width="5" stroke-linecap="round"/>
<path d="M351.873 439.864V469.364C351.873 470.469 352.768 471.364 353.873 471.364H413.873C425.873 471.364 426.199 456.299 418.873 435.864C409.373 409.364 432.373 402.54 445.373 406.364C455.315 409.289 461.873 421.364 455.873 435.864C450.847 448.011 442.229 455.076 451.291 470.407C451.642 471.001 452.292 471.364 452.981 471.364H526.873C527.977 471.364 528.873 470.469 528.873 469.364V406.364C528.873 400.864 531.673 394.664 548.873 399.864C570.373 406.364 589.873 394.864 587.873 376.864C584.836 349.528 548.873 359.364 548.873 358.864C548.873 358.364 524.873 366.864 524.873 340.864C524.873 321.539 524.459 301.911 524.761 293.513C524.803 292.35 523.881 291.364 522.717 291.364H456.373C450.373 291.364 447.067 300.824 459.373 315.864C468.373 326.864 461.873 354.864 434.873 348.364C427.206 345.531 416.373 334.864 424.373 315.864C428.373 306.364 436.873 290.864 422.873 289.864H353.873C352.768 289.864 351.873 290.76 351.873 291.864V337.864C351.873 344.531 347.873 355.264 331.873 344.864C311.873 331.864 288.873 347.364 291.873 370.364C293.699 384.364 303.873 388.364 309.373 389.864" stroke="black" stroke-width="5" stroke-linecap="round"/>
<path d="M525.373 291.864H582.873C589.873 291.864 602.641 285.485 598.373 259.878C593.873 232.876 615.344 233.101 624.373 236.375C629.04 238.044 636.973 245.08 631.373 259.878C624.373 278.375 628.873 292.88 643.373 292.88H693.373C694.478 292.88 695.373 293.776 695.373 294.88V375.364" stroke="black" stroke-width="5" stroke-linecap="round"/>
<path d="M527.373 471.364C540.54 471.198 572.667 471.364 585.873 471.364C592.373 471.364 599.373 476.364 593.373 492.864C587.373 509.364 593.373 524.864 607.873 527.364C633.123 531.718 640.873 510.364 633.373 492.864C628.348 481.14 626.873 471.864 635.373 471.364C642.869 470.923 683.81 471.26 693.374 471.346C694.486 471.356 695.373 470.457 695.373 469.345V421.364" stroke="black" stroke-width="5" stroke-linecap="round"/>
<path d="M523.873 504.864C522.206 509.364 521.373 522.764 531.373 540.364" stroke="black" stroke-width="5" stroke-linecap="round"/>
<path d="M504.873 501.864C498.373 507.864 485.073 521.864 483.873 529.864" stroke="black" stroke-width="5" stroke-linecap="round"/>
<path d="M536.373 501.864C539.54 507.364 546.073 519.264 546.873 522.864" stroke="black" stroke-width="5" stroke-linecap="round"/>
<path d="M525.873 268.364C532.373 262.364 545.673 248.364 546.873 240.364" stroke="black" stroke-width="5" stroke-linecap="round"/>
<path d="M506.873 265.364C508.54 260.864 509.373 247.464 499.373 229.864" stroke="black" stroke-width="5" stroke-linecap="round"/>
<path d="M494.373 268.364C491.206 262.864 484.673 250.964 483.873 247.364" stroke="black" stroke-width="5" stroke-linecap="round"/>
<path d="M673.065 369.047C671.731 361.22 668.7 345.206 660.523 338.1C658.409 336.353 654.359 331.965 655.078 328.395C655.976 323.933 646.072 322.135 645.999 332.35C645.926 342.565 653.52 344.833 645.85 347.888" stroke="black" stroke-width="5" stroke-linecap="round"/>
<path d="M645.85 347.888C639.714 350.331 621.5 339.908 613.16 334.391C610.301 332.33 604.006 329.829 601.692 336.311C601.119 337.916 601.581 339.678 602.714 341.479C606.16 346.949 615.813 352.767 621.508 355.563" stroke="black" stroke-width="5" stroke-linecap="round"/>
<path d="M621.508 355.563C615.813 352.767 606.16 346.949 602.714 341.479C599.516 339.652 592.792 337.612 591.48 344.062C591.084 346.008 592.28 348.165 594.369 350.325C599.203 355.326 608.824 360.349 614.583 362.844" stroke="black" stroke-width="5" stroke-linecap="round"/>
<path d="M614.583 362.844C608.824 360.349 599.203 355.326 594.369 350.325C590.889 351.813 587.134 356.846 599.945 365.078L603.805 367.435L610.517 371.534" stroke="black" stroke-width="5" stroke-linecap="round"/>
<path d="M603.805 367.435C603.917 371.854 609.059 382.422 628.727 389.338C648.396 396.254 660.643 393.207 664.308 390.819" stroke="black" stroke-width="5" stroke-linecap="round"/>
<path d="M806.373 321.864C797.173 392.664 774.206 399.031 763.873 393.364C743.206 383.864 697.673 368.264 680.873 381.864C664.073 395.464 684.206 413.864 696.373 421.364C736.706 450.198 824.273 497.464 851.873 455.864C879.473 414.264 881.373 361.864 878.873 340.864" stroke="black" stroke-width="5" stroke-linecap="round"/>
<path d="M765.373 315.864C750.04 322.031 714.573 337.664 695.373 350.864" stroke="black" stroke-width="5" stroke-linecap="round"/>
<path d="M836.748 272.309C839.358 263.205 840.888 245.841 826.127 249.216C807.675 253.434 770.618 280.75 773.373 290.864" stroke="black" stroke-width="5" stroke-linecap="round"/>
</svg>
