<svg width="822" height="699" viewBox="0 0 822 699" fill="none" xmlns="http://www.w3.org/2000/svg">
<path d="M186.949 439.721L153.291 307.98L591.223 196.091L597.643 221.221" stroke="white" stroke-width="3"/>
<path d="M202.917 502.221L228.543 602.519L238 600.103" stroke="white" stroke-width="3"/>
<path d="M391 583.5L409.5 579" stroke="white" stroke-width="3" stroke-linecap="round"/>
<path d="M439 572L591.751 535.203" stroke="white" stroke-width="3" stroke-linecap="round"/>
<path d="M380 586L242.176 618.38L211 487.5" stroke="white" stroke-width="3" stroke-linecap="round"/>
<path d="M199.982 441.5L171.637 322.678L611.301 217.797L653.312 393.908" stroke="white" stroke-width="3" stroke-linecap="round"/>
<path d="M64.0432 268.786C59.6576 269.727 55.4718 271.106 51.5136 272.834L53.6386 282.741C48.3632 285.278 43.6299 288.547 39.5019 292.472L30.9946 286.97C27.9144 290.12 25.2316 293.615 22.8481 297.301C20.4645 300.986 18.3767 304.867 16.7675 308.968L25.2748 314.47C23.3874 319.845 22.3472 325.502 22.1975 331.354L12.2908 333.479C12.3374 337.798 12.7966 342.181 13.7373 346.567C14.6781 350.952 16.0569 355.138 17.7857 359.096L27.6924 356.971C30.2289 362.247 33.4979 366.98 37.4237 371.108L31.9215 379.615C35.0711 382.696 38.5667 385.378 42.2521 387.762C45.9374 390.145 49.8178 392.233 53.9189 393.842L59.421 385.335C64.796 387.223 70.4537 388.263 76.3053 388.412L78.4303 398.319C82.7492 398.272 87.1323 397.813 91.5179 396.873C95.9035 395.932 100.089 394.553 104.048 392.824L101.923 382.918C107.198 380.381 111.931 377.112 116.059 373.186L124.567 378.688C127.647 375.539 130.33 372.043 132.713 368.358C135.097 364.673 137.184 360.792 138.794 356.691L130.286 351.189C132.174 345.814 133.214 340.156 133.364 334.305L143.27 332.18C143.224 327.861 142.765 323.478 141.824 319.092C140.883 314.706 139.504 310.521 137.775 306.562L127.869 308.687C125.332 303.412 122.063 298.679 118.137 294.551L123.64 286.043C120.49 282.963 116.994 280.28 113.309 277.897C109.624 275.513 105.743 273.425 101.642 271.816L96.1401 280.323C90.7651 278.436 85.1075 277.396 79.2559 277.246L77.1309 267.339C72.8119 267.386 68.4288 267.845 64.0432 268.786V268.786ZM70.9119 300.808C88.5878 297.016 106.011 308.285 109.802 325.961C113.594 343.637 102.325 361.059 84.6493 364.851C66.9733 368.642 49.5505 357.374 45.759 339.698C41.9675 322.022 53.236 304.599 70.9119 300.808Z" fill="white"/>
<path d="M319.084 352.749C314.721 353.79 310.568 355.264 306.651 357.083L309.002 366.938C303.786 369.595 299.128 372.971 295.091 376.99L286.46 371.684C283.453 374.903 280.851 378.459 278.552 382.198C276.253 385.937 274.255 389.864 272.74 394.001L281.371 399.307C279.607 404.724 278.696 410.404 278.68 416.257L268.825 418.608C268.97 422.925 269.53 427.297 270.57 431.66C271.611 436.023 273.085 440.176 274.904 444.093L284.76 441.742C287.416 446.958 290.793 451.616 294.812 455.653L289.506 464.284C292.725 467.291 296.281 469.893 300.02 472.192C303.759 474.491 307.686 476.489 311.823 478.004L317.129 469.373C322.546 471.137 328.225 472.048 334.079 472.064L336.43 481.919C340.747 481.774 345.118 481.214 349.481 480.174C353.844 479.133 357.997 477.659 361.915 475.84L359.564 465.984C364.78 463.328 369.437 459.951 373.474 455.932L382.105 461.238C385.113 458.019 387.715 454.463 390.013 450.724C392.312 446.985 394.311 443.058 395.826 438.921L387.195 433.615C388.959 428.198 389.869 422.519 389.885 416.665L399.741 414.314C399.595 409.997 399.036 405.626 397.995 401.263C396.954 396.9 395.48 392.747 393.661 388.829L383.806 391.18C381.149 385.964 377.773 381.307 373.754 377.27L379.06 368.639C375.841 365.631 372.285 363.029 368.546 360.731C364.807 358.432 360.88 356.433 356.743 354.918L351.437 363.549C346.02 361.785 340.34 360.875 334.487 360.859L332.136 351.003C327.819 351.149 323.447 351.708 319.084 352.749V352.749ZM326.684 384.605C344.268 380.41 361.944 391.277 366.139 408.862C370.334 426.447 359.467 444.123 341.882 448.317C324.297 452.512 306.621 441.645 302.427 424.06C298.232 406.476 309.099 388.8 326.684 384.605Z" stroke="white" stroke-width="5" stroke-linecap="round" stroke-linejoin="round"/>
<path d="M354.094 498.396C351.996 498.896 349.999 499.605 348.115 500.48L349.245 505.22C346.737 506.497 344.497 508.121 342.556 510.054L338.405 507.502C336.959 509.05 335.707 510.761 334.602 512.559C333.496 514.357 332.535 516.245 331.807 518.235L335.957 520.787C335.109 523.392 334.671 526.123 334.663 528.938L329.924 530.069C329.994 532.145 330.263 534.247 330.763 536.345C331.264 538.444 331.973 540.441 332.847 542.325L337.587 541.194C338.865 543.703 340.488 545.943 342.421 547.884L339.869 552.035C341.418 553.481 343.128 554.733 344.926 555.838C346.724 556.943 348.613 557.905 350.602 558.633L353.154 554.482C355.759 555.331 358.49 555.769 361.306 555.776L362.436 560.516C364.512 560.446 366.614 560.177 368.713 559.676C370.811 559.176 372.808 558.467 374.692 557.592L373.562 552.853C376.07 551.575 378.31 549.951 380.251 548.018L384.402 550.57C385.848 549.022 387.1 547.312 388.205 545.514C389.311 543.716 390.272 541.827 391 539.838L386.85 537.286C387.698 534.681 388.136 531.949 388.144 529.134L392.883 528.004C392.813 525.928 392.544 523.825 392.044 521.727C391.543 519.629 390.834 517.631 389.96 515.747L385.22 516.878C383.942 514.37 382.319 512.13 380.386 510.188L382.938 506.038C381.389 504.591 379.679 503.34 377.881 502.234C376.083 501.129 374.194 500.168 372.205 499.439L369.653 503.59C367.048 502.742 364.317 502.304 361.502 502.296L360.371 497.556C358.295 497.626 356.193 497.895 354.094 498.396V498.396ZM357.749 513.716C366.206 511.699 374.706 516.925 376.724 525.382C378.741 533.838 373.515 542.339 365.058 544.356C356.601 546.374 348.101 541.147 346.083 532.691C344.066 524.234 349.292 515.733 357.749 513.716Z" stroke="white" stroke-opacity="0.7" stroke-width="3" stroke-linecap="round" stroke-linejoin="round"/>
<path d="M595.477 485.057L617.272 434.396C637.561 387.239 694.968 369.062 738.701 395.949C782.51 422.883 792.147 482.455 759.064 521.828L723.586 564.051C699.34 592.907 657.619 599.656 625.512 579.917C593.339 560.137 580.551 519.748 595.477 485.057Z" stroke="white" stroke-width="5"/>
<path d="M608.845 458.963L617.532 437.288C636.613 389.676 693.972 370.719 737.668 397.583C781.452 424.501 790.358 484.405 756.3 522.897L740.826 540.385C715.492 569.016 673.245 575.298 640.676 555.275C608.03 535.204 594.589 494.535 608.845 458.963Z" fill="white"/>
<circle cx="334.228" cy="415.996" r="15.5" transform="rotate(-13.417 334.228 415.996)" stroke="white" stroke-width="2"/>
<circle cx="334.228" cy="415.998" r="22.5" transform="rotate(-13.417 334.228 415.998)" stroke="white" stroke-width="2"/>
<path d="M310.699 315.206L371.492 570.055" stroke="white" stroke-width="2" stroke-linecap="round" stroke-dasharray="12 12"/>
<path d="M420.195 282.918L463.354 463.841" stroke="white" stroke-width="2" stroke-linecap="round" stroke-dasharray="12 12"/>
<path d="M486.499 272.002L535.691 478.216" stroke="white" stroke-width="2" stroke-linecap="round" stroke-dasharray="12 12"/>
<path d="M558.516 276.65L597.73 441.038" stroke="white" stroke-width="2" stroke-linecap="round" stroke-dasharray="12 12"/>
<path d="M299.726 545.024L419.369 516.484" stroke="white" stroke-width="2" stroke-linecap="round" stroke-dasharray="12 12"/>
<path d="M237.56 439.571L605.243 351.862" stroke="white" stroke-width="2" stroke-linecap="round" stroke-dasharray="12 12"/>
<path d="M302.742 557.67L315.387 554.653" stroke="white" stroke-width="3" stroke-linecap="round"/>
<path d="M439.055 512.816L522.707 492.861" stroke="white" stroke-width="3" stroke-linecap="round"/>
<path d="M441.839 524.488L518.683 506.157" stroke="white" stroke-width="3" stroke-linecap="round"/>
<path d="M443.463 531.297L485.29 521.319" stroke="white" stroke-width="3" stroke-linecap="round"/>
<path d="M304.366 564.479L330.629 558.214" stroke="white" stroke-width="3" stroke-linecap="round"/>
<path d="M454.21 356.123L468.283 333.233" stroke="white" stroke-opacity="0.6" stroke-width="3" stroke-linecap="round"/>
<path d="M446.879 394.779L499.467 309.243" stroke="white" stroke-opacity="0.6" stroke-width="3" stroke-linecap="round"/>
<path d="M459.67 400.705L476.751 372.908M510.251 318.908L492.735 346.922" stroke="white" stroke-opacity="0.6" stroke-width="3" stroke-linecap="round"/>
<path d="M469.251 411.853L482.368 390.518M525.542 320.292L512.735 341.123" stroke="white" stroke-opacity="0.6" stroke-width="3" stroke-linecap="round"/>
<path d="M474.634 429.827L492.33 401.044M542.751 318.408L526.251 345.908" stroke="white" stroke-opacity="0.6" stroke-width="3" stroke-linecap="round"/>
<path d="M491.745 428.726L504.96 407.232M549.751 334.909L537.251 354.409" stroke="white" stroke-opacity="0.6" stroke-width="3" stroke-linecap="round"/>
<path d="M507.375 430.034L521.139 407.371M557.251 347.909L542.751 372.409" stroke="white" stroke-opacity="0.6" stroke-width="3" stroke-linecap="round"/>
<path d="M518.561 438.57L571.251 351.908" stroke="white" stroke-opacity="0.6" stroke-width="3" stroke-linecap="round"/>
<path d="M548.264 416.989L564.251 390.908" stroke="white" stroke-opacity="0.6" stroke-width="3" stroke-linecap="round"/>
<path d="M494.504 311.032C490.141 312.073 485.988 313.547 482.07 315.366L484.421 325.221C479.205 327.878 474.548 331.254 470.511 335.273L461.88 329.967C458.872 333.186 456.27 336.743 453.972 340.481C451.673 344.22 449.674 348.147 448.159 352.284L456.79 357.59C455.026 363.007 454.116 368.687 454.1 374.541L444.244 376.892C444.39 381.208 444.949 385.58 445.99 389.943C447.031 394.306 448.505 398.459 450.324 402.377L460.179 400.026C462.836 405.242 466.212 409.899 470.231 413.936L464.925 422.567C468.144 425.574 471.7 428.176 475.439 430.475C479.178 432.774 483.105 434.772 487.242 436.287L492.548 427.656C497.965 429.42 503.645 430.331 509.498 430.347L511.849 440.202C516.166 440.057 520.538 439.497 524.901 438.457C529.264 437.416 533.417 435.942 537.334 434.123L534.983 424.267C540.199 421.611 544.857 418.234 548.894 414.215L557.525 419.522C560.532 416.302 563.134 412.746 565.433 409.007C567.732 405.269 569.73 401.341 571.245 397.205L562.614 391.898C564.378 386.482 565.289 380.802 565.305 374.948L575.16 372.597C575.015 368.28 574.455 363.909 573.415 359.546C572.374 355.183 570.9 351.03 569.081 347.112L559.225 349.463C556.569 344.247 553.192 339.59 549.173 335.553L554.479 326.922C551.26 323.914 547.704 321.312 543.965 319.014C540.226 316.715 536.299 314.717 532.162 313.202L526.856 321.832C521.439 320.068 515.759 319.158 509.906 319.142L507.555 309.287C503.238 309.432 498.867 309.991 494.504 311.032V311.032ZM502.103 342.888C519.688 338.693 537.364 349.561 541.558 367.145C545.753 384.73 534.886 402.406 517.301 406.601C499.717 410.795 482.041 399.928 477.846 382.344C473.651 364.759 484.518 347.083 502.103 342.888Z" stroke="white" stroke-width="5" stroke-linecap="round" stroke-linejoin="round"/>
<path d="M218.239 375.814L364.631 340.893" stroke="white" stroke-width="3" stroke-linecap="round"/>
<path d="M303.709 490.615L394.171 469.036" stroke="white" stroke-width="3" stroke-linecap="round"/>
<path d="M421.893 462.423L569.258 427.269" stroke="white" stroke-width="3" stroke-linecap="round"/>
<path d="M451.804 320.611L541.293 299.264" stroke="white" stroke-width="3" stroke-linecap="round"/>
<path d="M456.476 599.234C452.476 594.734 447.976 588.233 446.976 581.234C446.287 576.416 441.142 573.067 437.976 573.233" stroke="white" stroke-width="5" stroke-linecap="round"/>
<path d="M438.476 581.234C438.476 577.567 438.776 570.334 429.976 570.734" stroke="white" stroke-width="5" stroke-linecap="round"/>
<path d="M431.976 577.734C430.642 573.901 426.866 566.634 420.066 570.234" stroke="white" stroke-width="5" stroke-linecap="round"/>
<path d="M426.475 582.234C424.309 580.901 421.475 575.434 419.475 568.234C417.475 561.034 406.975 554.901 401.975 552.734C399.309 551.567 393.975 550.934 393.975 557.734C393.975 563.734 408.675 568.934 409.475 577.734C410.275 586.534 409.809 590.401 409.475 591.234C408.642 592.901 405.675 594.934 400.475 589.734C395.275 584.534 388.475 583.234 384.975 584.234C381.975 585.234 377.775 588.634 384.975 594.234C390.325 598.395 407.875 606.134 423.475 625.734" stroke="white" stroke-width="5" stroke-linecap="round"/>
<path d="M594.334 677.045C553.534 638.245 496.334 603 471.742 603C426.796 603 427.895 625.083 434.136 636.311C434.207 636.439 434.287 636.549 434.385 636.657C446.973 650.569 477.427 681.654 499.742 696" stroke="white" stroke-width="5" stroke-linecap="round"/>
<path d="M46.0001 666.846C55.6001 653.246 80.6668 615.598 91.5001 597.346C98.919 584.846 104.482 570.948 106.5 561.5C110.5 542.774 122 509 157 555.5C165.279 566.5 173.334 576.545 139.834 641.546" stroke="white" stroke-width="5" stroke-linecap="round"/>
<path d="M170.596 545.096C177.913 536.091 191.14 522.02 196.487 512.17L205.211 497.255C211.12 487.761 213.65 480.02 215.908 475.823C216.912 473.958 217.537 472.541 218.927 469.769C220.189 467.252 221.299 464.711 220.418 462.627C219.743 461.03 216.93 458.236 211.072 459.831C205.213 461.426 201.218 466.374 199.952 468.648C198.685 470.533 193.182 477.362 191.675 478.861C188.173 482.343 170.922 496.784 160.163 488.323" stroke="white" stroke-width="5" stroke-linecap="round"/>
<path d="M158.069 474.339C167 469.617 184.35 461.105 190.393 455.26C196.6 454.059 211.928 456.067 210.381 447.836C210.059 446.122 204.662 441.868 196.639 440.425C190.866 439.386 186.68 438.981 181.884 441.558C179.165 443.019 178.086 443.538 174.576 445.87C171.851 447.07 170.191 448.459 167.965 449.988C165.68 451.559 162.369 454.058 157.737 458.427" stroke="white" stroke-width="5" stroke-linecap="round"/>
<path d="M174.576 445.87C173.119 445.078 166.824 445.129 159.403 448.804C151.297 452.819 149.912 454.34 146.773 456.411C143.634 458.482 137.356 462.624 134.899 464.622C130.55 468.158 126.587 472.143 125.023 474.154C122.268 478.408 123.803 481.626 127.943 489.547" stroke="white" stroke-width="5" stroke-linecap="round"/>
<path d="M130.426 504.253C130.426 509.527 129.228 522.02 125.57 532.433" stroke="white" stroke-width="5" stroke-linecap="round"/>
<path d="M202.998 464.624L132.393 503.201C123.863 506.538 117.929 494.845 126.88 490.897L158.02 474.295M212.819 459.124L225.877 452.064L219.693 442.177L210.854 446.642" stroke="white" stroke-width="5" stroke-linecap="round"/>
<path d="M227.638 451.106L235 440.211" stroke="white" stroke-width="5" stroke-linecap="round"/>
<path d="M221.447 441.256L235 440.211" stroke="white" stroke-width="5" stroke-linecap="round"/>
<path d="M255.136 232.897C256.581 247.96 235.186 250.875 234.263 233.637L232.169 98.1356L231.424 61.6768C231.401 60.5564 232.303 59.6359 233.423 59.6359L251.382 59.6359M255.136 232.897L252.669 98.1369L251.382 59.6359M255.136 232.897L282.57 232.897C283.713 232.897 284.623 231.942 284.568 230.8L278.169 98.1369L276.471 61.5432C276.421 60.4758 275.542 59.6359 274.473 59.6359L251.382 59.6359" stroke="white" stroke-width="5" stroke-linecap="round"/>
<rect x="278.915" y="114.137" width="228" height="142" rx="7.5" transform="rotate(-30 278.915 114.137)" stroke="white" stroke-width="5"/>
<ellipse cx="308.718" cy="121.757" rx="5.5" ry="6" transform="rotate(-30 308.718 121.757)" fill="white"/>
<path d="M489.152 127.279L520.329 109.279M505.021 129.664L525.329 117.94" stroke="white" stroke-width="5" stroke-linecap="round"/>
<path d="M345.977 179.144C352.531 174.519 371.177 169.235 394.289 184.041C394.985 184.487 395.915 183.969 395.873 183.143C394.436 154.895 395.501 124.98 453.771 126.488C454.808 126.515 455.309 125.069 454.465 124.466C438.763 113.234 418.883 86.8067 442.916 53.9068C443.477 53.1395 442.791 52.0414 441.867 52.2666L432.847 54.4667C431.805 54.7208 431.199 53.4508 432.081 52.8393C440.38 47.081 452.538 40.8475 451.292 48.3268C449.809 57.2257 450.789 61.7443 455.636 67.3428" stroke="white" stroke-width="5" stroke-linecap="round"/>
</svg>
