<svg width="300" height="175" viewBox="0 0 300 175" fill="none" xmlns="http://www.w3.org/2000/svg">
<path d="M19.1551 104.371C11.5828 102.955 -3.20658 105.488 5.64772 123.779C12.4008 137.729 22.8378 145.008 25.9082 148.04" stroke="black" stroke-width="5" stroke-linecap="round"/>
<path d="M114.917 122.288C109.32 121.227 98.3886 123.126 104.933 136.844C109.924 147.307 119.139 153.266 121.408 155.54" stroke="black" stroke-width="5" stroke-linecap="round"/>
<path d="M205.917 138.228C200.32 137.424 189.389 138.863 195.933 149.255C200.924 157.182 209.639 161.817 211.908 163.54" stroke="black" stroke-width="5" stroke-linecap="round"/>
<path d="M37.5597 166.212C20.8241 151.993 20.6627 115.831 22.9446 96.7835C23.097 95.5114 24.4049 94.75 25.6246 95.142C41.9439 100.387 61.4374 97.5963 71.2017 94.9849C72.4099 94.6618 73.6468 95.484 73.7847 96.727C78.7217 141.224 66.2048 161.119 59.1804 166.231C59.0967 166.292 59.0159 166.34 58.9228 166.385C54.9943 168.294 45.5338 170.856 37.8281 166.402C37.7332 166.347 37.6432 166.283 37.5597 166.212Z" stroke="black" stroke-width="5" stroke-linecap="round"/>
<path d="M130.563 164.117C113.955 153.899 113.666 128.032 115.891 114.152C116.076 113.004 117.221 112.304 118.352 112.573C134.859 116.49 154.701 114.392 164.438 112.477C165.566 112.255 166.669 113.007 166.839 114.144C171.656 146.307 159.033 160.604 152.059 164.191C148.215 165.579 138.614 167.518 130.816 164.247C130.729 164.21 130.644 164.166 130.563 164.117Z" stroke="black" stroke-width="5" stroke-linecap="round"/>
<path d="M221.685 170.602C205.077 162.752 204.666 142.794 206.844 131.917C207.055 130.862 208.098 130.22 209.156 130.418C225.797 133.532 245.893 131.856 255.606 130.354C256.668 130.19 257.689 130.878 257.888 131.934C262.57 156.769 250.009 167.822 243.059 170.602C239.193 171.687 229.507 173.206 221.685 170.602Z" stroke="black" stroke-width="5" stroke-linecap="round"/>
<ellipse cx="48.4082" cy="94.04" rx="26.5" ry="5" fill="black"/>
<ellipse cx="141.408" cy="112.04" rx="26.5" ry="5" fill="black"/>
<ellipse cx="232.408" cy="129.04" rx="26.5" ry="4" fill="black"/>
<path d="M54.3991 77.04C58.6396 73.0985 64.5763 60.7906 54.3991 43.0916C44.2219 25.3926 55.3567 9.01598 62.1962 3.04004" stroke="black" stroke-width="5" stroke-linecap="round"/>
<path d="M41.6776 59.8752C35.7956 51.4834 26.5759 31.038 36.7532 16.3906" stroke="black" stroke-width="5" stroke-linecap="round"/>
<path d="M86.4082 167.041C98.0082 160.641 77.2415 161.873 65.9082 162.04L59.9082 168.041C72.4082 170.541 81.9082 169.041 86.4082 167.041Z" fill="black"/>
<path d="M177.408 166.244C189.008 159.844 168.242 161.076 156.908 161.243L150.908 167.244C163.408 169.744 172.908 168.244 177.408 166.244Z" fill="black"/>
<path d="M268.485 172.196C280.118 167.085 259.292 168.069 247.926 168.202L241.908 172.994C254.444 174.991 263.972 173.793 268.485 172.196Z" fill="black"/>
<path d="M156.991 100.04C154.175 84.9504 145.746 45.2562 122.909 47.54C102.91 49.54 115.198 86.456 149.277 57.756C161.408 47.54 159.787 20.6679 153.91 13.04" stroke="black" stroke-width="5" stroke-linecap="round"/>
<path d="M142.408 100.04L140.667 81.7578C140.539 80.4118 139.136 79.5669 137.842 79.9602C131.485 81.893 120.541 82.9792 112.908 76.04C105.408 69.2067 95.3083 51.94 114.908 37.54" stroke="black" stroke-width="5" stroke-linecap="round"/>
<path d="M214.908 120.04C214.408 114.373 223.008 99.6396 261.408 86.0396C309.408 69.0396 304.408 28.5396 271.408 30.0396" stroke="black" stroke-width="5" stroke-linecap="round"/>
<path d="M219.908 94.54C227.908 85.34 251.242 75.7067 261.908 72.04C272.242 67.7067 289.808 55.74 277.408 42.54" stroke="black" stroke-width="5" stroke-linecap="round"/>
</svg>
